<mxfile host="app.diagrams.net" modified="2023-12-12T07:54:29.224Z" agent="Mozilla/5.0 (Macintosh; Intel Mac OS X 10_15_7) AppleWebKit/537.36 (KHTML, like Gecko) Chrome/120.0.0.0 Safari/537.36" etag="bOffq2AMYX-hP9rHM4UX" version="22.1.7" type="github">
  <diagram name="Page-1 的副本" id="eUShnUukef-zc76YGlRi">
    <mxGraphModel dx="954" dy="532" grid="1" gridSize="10" guides="1" tooltips="1" connect="1" arrows="1" fold="1" page="1" pageScale="1" pageWidth="850" pageHeight="1100" background="none" math="0" shadow="0">
      <root>
        <mxCell id="JlVxawvqB5DC8rzGfeJr-0" />
        <mxCell id="JlVxawvqB5DC8rzGfeJr-1" parent="JlVxawvqB5DC8rzGfeJr-0" />
        <mxCell id="JlVxawvqB5DC8rzGfeJr-2" style="rounded=0;orthogonalLoop=1;jettySize=auto;html=1;dashed=1;" edge="1" parent="JlVxawvqB5DC8rzGfeJr-1">
          <mxGeometry relative="1" as="geometry">
            <mxPoint x="289.5" y="910" as="sourcePoint" />
            <mxPoint x="80" y="910" as="targetPoint" />
          </mxGeometry>
        </mxCell>
        <mxCell id="JlVxawvqB5DC8rzGfeJr-3" value="16.token无效，重新登录" style="edgeLabel;html=1;align=center;verticalAlign=middle;resizable=0;points=[];" vertex="1" connectable="0" parent="JlVxawvqB5DC8rzGfeJr-2">
          <mxGeometry x="0.2936" y="-3" relative="1" as="geometry">
            <mxPoint x="17" y="-7" as="offset" />
          </mxGeometry>
        </mxCell>
        <mxCell id="JlVxawvqB5DC8rzGfeJr-4" value="auth-server" style="shape=umlLifeline;perimeter=lifelinePerimeter;whiteSpace=wrap;html=1;container=1;collapsible=0;recursiveResize=0;outlineConnect=0;rounded=1;shadow=0;comic=0;labelBackgroundColor=none;strokeWidth=1;fontFamily=Verdana;fontSize=12;align=center;" vertex="1" parent="JlVxawvqB5DC8rzGfeJr-1">
          <mxGeometry x="240" y="80" width="100" height="1050" as="geometry" />
        </mxCell>
        <mxCell id="JlVxawvqB5DC8rzGfeJr-5" value="" style="html=1;points=[];perimeter=orthogonalPerimeter;rounded=0;shadow=0;comic=0;labelBackgroundColor=none;strokeWidth=1;fontFamily=Verdana;fontSize=12;align=center;" vertex="1" parent="JlVxawvqB5DC8rzGfeJr-4">
          <mxGeometry x="45" y="100" width="10" height="170" as="geometry" />
        </mxCell>
        <mxCell id="JlVxawvqB5DC8rzGfeJr-6" value="" style="html=1;points=[];perimeter=orthogonalPerimeter;rounded=0;shadow=0;comic=0;labelBackgroundColor=none;strokeWidth=1;fontFamily=Verdana;fontSize=12;align=center;" vertex="1" parent="JlVxawvqB5DC8rzGfeJr-4">
          <mxGeometry x="50" y="158" width="10" height="70" as="geometry" />
        </mxCell>
        <mxCell id="JlVxawvqB5DC8rzGfeJr-7" value="2.生成access-token、&lt;br&gt;refresh-token" style="html=1;verticalAlign=bottom;endArrow=block;labelBackgroundColor=none;fontFamily=Verdana;fontSize=12;elbow=vertical;edgeStyle=orthogonalEdgeStyle;curved=1;entryX=1;entryY=0.286;entryPerimeter=0;exitX=1.038;exitY=0.345;exitPerimeter=0;" edge="1" parent="JlVxawvqB5DC8rzGfeJr-4" target="JlVxawvqB5DC8rzGfeJr-6">
          <mxGeometry x="-0.2308" y="20" relative="1" as="geometry">
            <mxPoint x="55" y="140" as="sourcePoint" />
            <mxPoint x="55" y="88" as="targetPoint" />
            <Array as="points">
              <mxPoint x="110" y="140" />
              <mxPoint x="110" y="178" />
            </Array>
            <mxPoint as="offset" />
          </mxGeometry>
        </mxCell>
        <mxCell id="JlVxawvqB5DC8rzGfeJr-8" style="rounded=0;orthogonalLoop=1;jettySize=auto;html=1;" edge="1" parent="JlVxawvqB5DC8rzGfeJr-4">
          <mxGeometry relative="1" as="geometry">
            <mxPoint x="-165" y="440" as="sourcePoint" />
            <mxPoint x="200" y="440" as="targetPoint" />
          </mxGeometry>
        </mxCell>
        <mxCell id="JlVxawvqB5DC8rzGfeJr-9" value="8.请求数据接口携带accses-token" style="edgeLabel;html=1;align=center;verticalAlign=middle;resizable=0;points=[];" vertex="1" connectable="0" parent="JlVxawvqB5DC8rzGfeJr-8">
          <mxGeometry x="-0.2603" y="3" relative="1" as="geometry">
            <mxPoint x="10" y="-7" as="offset" />
          </mxGeometry>
        </mxCell>
        <mxCell id="JlVxawvqB5DC8rzGfeJr-10" value="" style="html=1;points=[];perimeter=orthogonalPerimeter;rounded=0;shadow=0;comic=0;labelBackgroundColor=none;strokeWidth=1;fontFamily=Verdana;fontSize=12;align=center;" vertex="1" parent="JlVxawvqB5DC8rzGfeJr-4">
          <mxGeometry x="45" y="590" width="10" height="410" as="geometry" />
        </mxCell>
        <mxCell id="JlVxawvqB5DC8rzGfeJr-11" value="" style="html=1;points=[];perimeter=orthogonalPerimeter;rounded=0;shadow=0;comic=0;labelBackgroundColor=none;strokeWidth=1;fontFamily=Verdana;fontSize=12;align=center;" vertex="1" parent="JlVxawvqB5DC8rzGfeJr-4">
          <mxGeometry x="50" y="629" width="10" height="40" as="geometry" />
        </mxCell>
        <mxCell id="JlVxawvqB5DC8rzGfeJr-12" value="12.校验token" style="html=1;verticalAlign=bottom;endArrow=block;labelBackgroundColor=none;fontFamily=Verdana;fontSize=12;elbow=vertical;edgeStyle=orthogonalEdgeStyle;curved=1;entryX=1;entryY=0.286;entryPerimeter=0;exitX=1.038;exitY=0.345;exitPerimeter=0;" edge="1" parent="JlVxawvqB5DC8rzGfeJr-4">
          <mxGeometry x="-0.2333" y="20" relative="1" as="geometry">
            <mxPoint x="55.333333333333485" y="610" as="sourcePoint" />
            <mxPoint x="60.333333333333485" y="648.3333333333334" as="targetPoint" />
            <Array as="points">
              <mxPoint x="110" y="610" />
              <mxPoint x="110" y="648" />
            </Array>
            <mxPoint as="offset" />
          </mxGeometry>
        </mxCell>
        <mxCell id="JlVxawvqB5DC8rzGfeJr-13" value="" style="html=1;points=[];perimeter=orthogonalPerimeter;rounded=0;shadow=0;comic=0;labelBackgroundColor=none;strokeWidth=1;fontFamily=Verdana;fontSize=12;align=center;" vertex="1" parent="JlVxawvqB5DC8rzGfeJr-4">
          <mxGeometry x="50" y="759" width="10" height="40" as="geometry" />
        </mxCell>
        <mxCell id="JlVxawvqB5DC8rzGfeJr-14" value="15.判断redis中存储的&lt;br&gt;refresh-token&lt;br&gt;是否已经使用" style="html=1;verticalAlign=bottom;endArrow=block;labelBackgroundColor=none;fontFamily=Verdana;fontSize=12;elbow=vertical;edgeStyle=orthogonalEdgeStyle;curved=1;entryX=1;entryY=0.286;entryPerimeter=0;exitX=1.038;exitY=0.345;exitPerimeter=0;" edge="1" parent="JlVxawvqB5DC8rzGfeJr-4">
          <mxGeometry x="0.0472" y="40" relative="1" as="geometry">
            <mxPoint x="55.333333333333485" y="740" as="sourcePoint" />
            <mxPoint x="60.333333333333485" y="778.3333333333334" as="targetPoint" />
            <Array as="points">
              <mxPoint x="110" y="740" />
              <mxPoint x="110" y="778" />
            </Array>
            <mxPoint as="offset" />
          </mxGeometry>
        </mxCell>
        <mxCell id="JlVxawvqB5DC8rzGfeJr-15" value="" style="html=1;points=[];perimeter=orthogonalPerimeter;rounded=0;shadow=0;comic=0;labelBackgroundColor=none;strokeWidth=1;fontFamily=Verdana;fontSize=12;align=center;" vertex="1" parent="JlVxawvqB5DC8rzGfeJr-4">
          <mxGeometry x="50" y="889" width="10" height="40" as="geometry" />
        </mxCell>
        <mxCell id="JlVxawvqB5DC8rzGfeJr-16" value="17.refresh-token有效，&lt;br&gt;重新生成access-token、refresh-token" style="html=1;verticalAlign=bottom;endArrow=block;labelBackgroundColor=none;fontFamily=Verdana;fontSize=12;elbow=vertical;edgeStyle=orthogonalEdgeStyle;curved=1;entryX=1;entryY=0.286;entryPerimeter=0;exitX=1.038;exitY=0.345;exitPerimeter=0;" edge="1" parent="JlVxawvqB5DC8rzGfeJr-4">
          <mxGeometry x="-0.2333" y="60" relative="1" as="geometry">
            <mxPoint x="55.333333333333485" y="870" as="sourcePoint" />
            <mxPoint x="60.333333333333485" y="908.3333333333334" as="targetPoint" />
            <Array as="points">
              <mxPoint x="110" y="870" />
              <mxPoint x="110" y="908" />
            </Array>
            <mxPoint as="offset" />
          </mxGeometry>
        </mxCell>
        <mxCell id="JlVxawvqB5DC8rzGfeJr-17" value="business-server" style="shape=umlLifeline;perimeter=lifelinePerimeter;whiteSpace=wrap;html=1;container=1;collapsible=0;recursiveResize=0;outlineConnect=0;rounded=1;shadow=0;comic=0;labelBackgroundColor=none;strokeWidth=1;fontFamily=Verdana;fontSize=12;align=center;" vertex="1" parent="JlVxawvqB5DC8rzGfeJr-1">
          <mxGeometry x="400" y="80" width="100" height="1050" as="geometry" />
        </mxCell>
        <mxCell id="JlVxawvqB5DC8rzGfeJr-18" value="" style="html=1;points=[];perimeter=orthogonalPerimeter;rounded=0;shadow=0;comic=0;labelBackgroundColor=none;strokeWidth=1;fontFamily=Verdana;fontSize=12;align=center;" vertex="1" parent="JlVxawvqB5DC8rzGfeJr-17">
          <mxGeometry x="45" y="310" width="10" height="250" as="geometry" />
        </mxCell>
        <mxCell id="JlVxawvqB5DC8rzGfeJr-19" value="" style="html=1;points=[];perimeter=orthogonalPerimeter;rounded=0;shadow=0;comic=0;labelBackgroundColor=none;strokeWidth=1;fontFamily=Verdana;fontSize=12;align=center;" vertex="1" parent="JlVxawvqB5DC8rzGfeJr-17">
          <mxGeometry x="50" y="349" width="10" height="40" as="geometry" />
        </mxCell>
        <mxCell id="JlVxawvqB5DC8rzGfeJr-20" value="6.校验token" style="html=1;verticalAlign=bottom;endArrow=block;labelBackgroundColor=none;fontFamily=Verdana;fontSize=12;elbow=vertical;edgeStyle=orthogonalEdgeStyle;curved=1;entryX=1;entryY=0.286;entryPerimeter=0;exitX=1.038;exitY=0.345;exitPerimeter=0;" edge="1" parent="JlVxawvqB5DC8rzGfeJr-17">
          <mxGeometry x="-0.2333" y="14" relative="1" as="geometry">
            <mxPoint x="55.333333333333485" y="330" as="sourcePoint" />
            <mxPoint x="60.333333333333485" y="368.33333333333337" as="targetPoint" />
            <Array as="points">
              <mxPoint x="110" y="330" />
              <mxPoint x="110" y="368" />
            </Array>
            <mxPoint x="-4" y="-10" as="offset" />
          </mxGeometry>
        </mxCell>
        <mxCell id="JlVxawvqB5DC8rzGfeJr-21" value="" style="html=1;points=[];perimeter=orthogonalPerimeter;rounded=0;shadow=0;comic=0;labelBackgroundColor=none;strokeWidth=1;fontFamily=Verdana;fontSize=12;align=center;" vertex="1" parent="JlVxawvqB5DC8rzGfeJr-17">
          <mxGeometry x="50" y="489" width="10" height="40" as="geometry" />
        </mxCell>
        <mxCell id="JlVxawvqB5DC8rzGfeJr-22" value="9.校验token" style="html=1;verticalAlign=bottom;endArrow=block;labelBackgroundColor=none;fontFamily=Verdana;fontSize=12;elbow=vertical;edgeStyle=orthogonalEdgeStyle;curved=1;entryX=1;entryY=0.286;entryPerimeter=0;exitX=1.038;exitY=0.345;exitPerimeter=0;" edge="1" parent="JlVxawvqB5DC8rzGfeJr-17">
          <mxGeometry x="-0.2333" y="14" relative="1" as="geometry">
            <mxPoint x="55.333333333333485" y="470" as="sourcePoint" />
            <mxPoint x="60.333333333333485" y="508.33333333333337" as="targetPoint" />
            <Array as="points">
              <mxPoint x="110" y="470" />
              <mxPoint x="110" y="508" />
            </Array>
            <mxPoint x="-4" y="-10" as="offset" />
          </mxGeometry>
        </mxCell>
        <mxCell id="JlVxawvqB5DC8rzGfeJr-23" style="rounded=0;orthogonalLoop=1;jettySize=auto;html=1;entryX=-0.433;entryY=0.642;entryDx=0;entryDy=0;entryPerimeter=0;" edge="1" parent="JlVxawvqB5DC8rzGfeJr-17" target="JlVxawvqB5DC8rzGfeJr-28">
          <mxGeometry relative="1" as="geometry">
            <mxPoint x="-105" y="710" as="sourcePoint" />
            <mxPoint x="189.5" y="710" as="targetPoint" />
          </mxGeometry>
        </mxCell>
        <mxCell id="JlVxawvqB5DC8rzGfeJr-24" value="14.refresh-token有效，从redis中查询" style="edgeLabel;html=1;align=center;verticalAlign=middle;resizable=0;points=[];" vertex="1" connectable="0" parent="JlVxawvqB5DC8rzGfeJr-23">
          <mxGeometry x="-0.21" y="6" relative="1" as="geometry">
            <mxPoint x="29" y="-14" as="offset" />
          </mxGeometry>
        </mxCell>
        <mxCell id="JlVxawvqB5DC8rzGfeJr-25" style="rounded=0;orthogonalLoop=1;jettySize=auto;html=1;entryX=-0.033;entryY=0.948;entryDx=0;entryDy=0;entryPerimeter=0;" edge="1" parent="JlVxawvqB5DC8rzGfeJr-17" target="JlVxawvqB5DC8rzGfeJr-28">
          <mxGeometry relative="1" as="geometry">
            <mxPoint x="-100" y="958" as="sourcePoint" />
            <mxPoint x="180" y="960" as="targetPoint" />
          </mxGeometry>
        </mxCell>
        <mxCell id="JlVxawvqB5DC8rzGfeJr-26" value="18.删除旧的refresh-token,存储新的refresh-token到redis" style="edgeLabel;html=1;align=center;verticalAlign=middle;resizable=0;points=[];" vertex="1" connectable="0" parent="JlVxawvqB5DC8rzGfeJr-25">
          <mxGeometry x="-0.1148" y="1" relative="1" as="geometry">
            <mxPoint x="15" y="-17" as="offset" />
          </mxGeometry>
        </mxCell>
        <mxCell id="JlVxawvqB5DC8rzGfeJr-27" value="redis" style="shape=umlLifeline;perimeter=lifelinePerimeter;whiteSpace=wrap;html=1;container=1;collapsible=0;recursiveResize=0;outlineConnect=0;rounded=1;shadow=0;comic=0;labelBackgroundColor=none;strokeWidth=1;fontFamily=Verdana;fontSize=12;align=center;" vertex="1" parent="JlVxawvqB5DC8rzGfeJr-1">
          <mxGeometry x="540" y="80" width="100" height="1050" as="geometry" />
        </mxCell>
        <mxCell id="JlVxawvqB5DC8rzGfeJr-28" value="" style="html=1;points=[];perimeter=orthogonalPerimeter;rounded=0;shadow=0;comic=0;labelBackgroundColor=none;strokeWidth=1;fontFamily=Verdana;fontSize=12;align=center;" vertex="1" parent="JlVxawvqB5DC8rzGfeJr-27">
          <mxGeometry x="45" y="190" width="10" height="810" as="geometry" />
        </mxCell>
        <mxCell id="JlVxawvqB5DC8rzGfeJr-29" value="前端" style="shape=umlLifeline;perimeter=lifelinePerimeter;whiteSpace=wrap;html=1;container=1;collapsible=0;recursiveResize=0;outlineConnect=0;rounded=1;shadow=0;comic=0;labelBackgroundColor=none;strokeWidth=1;fontFamily=Verdana;fontSize=12;align=center;" vertex="1" parent="JlVxawvqB5DC8rzGfeJr-1">
          <mxGeometry x="20" y="80" width="100" height="1050" as="geometry" />
        </mxCell>
        <mxCell id="JlVxawvqB5DC8rzGfeJr-30" value="" style="html=1;points=[];perimeter=orthogonalPerimeter;rounded=0;shadow=0;comic=0;labelBackgroundColor=none;strokeWidth=1;fontFamily=Verdana;fontSize=12;align=center;" vertex="1" parent="JlVxawvqB5DC8rzGfeJr-29">
          <mxGeometry x="45" y="100" width="10" height="900" as="geometry" />
        </mxCell>
        <mxCell id="JlVxawvqB5DC8rzGfeJr-31" style="rounded=0;orthogonalLoop=1;jettySize=auto;html=1;entryX=0.9;entryY=0.385;entryDx=0;entryDy=0;entryPerimeter=0;dashed=1;" edge="1" parent="JlVxawvqB5DC8rzGfeJr-29">
          <mxGeometry relative="1" as="geometry">
            <mxPoint x="270.5" y="270.00000000000006" as="sourcePoint" />
            <mxPoint x="55" y="270.00000000000006" as="targetPoint" />
            <Array as="points" />
          </mxGeometry>
        </mxCell>
        <mxCell id="JlVxawvqB5DC8rzGfeJr-32" value="4.return access-token、&lt;br style=&quot;border-color: var(--border-color); font-family: Verdana; font-size: 12px; background-color: rgb(251, 251, 251);&quot;&gt;&lt;span style=&quot;font-family: Verdana; font-size: 12px; background-color: rgb(251, 251, 251);&quot;&gt;refresh-token&lt;/span&gt;" style="edgeLabel;html=1;align=center;verticalAlign=middle;resizable=0;points=[];" vertex="1" connectable="0" parent="JlVxawvqB5DC8rzGfeJr-31">
          <mxGeometry x="0.1709" y="1" relative="1" as="geometry">
            <mxPoint x="17" y="-20" as="offset" />
          </mxGeometry>
        </mxCell>
        <mxCell id="JlVxawvqB5DC8rzGfeJr-33" value="1.username and password" style="html=1;verticalAlign=bottom;endArrow=block;entryX=0;entryY=0;labelBackgroundColor=none;fontFamily=Verdana;fontSize=12;edgeStyle=elbowEdgeStyle;elbow=vertical;" edge="1" parent="JlVxawvqB5DC8rzGfeJr-1" source="JlVxawvqB5DC8rzGfeJr-30" target="JlVxawvqB5DC8rzGfeJr-5">
          <mxGeometry relative="1" as="geometry">
            <mxPoint x="220" y="190" as="sourcePoint" />
          </mxGeometry>
        </mxCell>
        <mxCell id="JlVxawvqB5DC8rzGfeJr-34" value="" style="html=1;points=[];perimeter=orthogonalPerimeter;rounded=0;shadow=0;comic=0;labelBackgroundColor=none;strokeWidth=1;fontFamily=Verdana;fontSize=12;align=center;" vertex="1" parent="JlVxawvqB5DC8rzGfeJr-1">
          <mxGeometry x="590" y="520" width="10" height="40" as="geometry" />
        </mxCell>
        <mxCell id="JlVxawvqB5DC8rzGfeJr-35" value="dispatch" style="html=1;verticalAlign=bottom;endArrow=block;labelBackgroundColor=none;fontFamily=Verdana;fontSize=12;elbow=vertical;edgeStyle=orthogonalEdgeStyle;curved=1;entryX=1;entryY=0.286;entryPerimeter=0;exitX=1.038;exitY=0.345;exitPerimeter=0;" edge="1" parent="JlVxawvqB5DC8rzGfeJr-1">
          <mxGeometry relative="1" as="geometry">
            <mxPoint x="595.3333333333335" y="501" as="sourcePoint" />
            <mxPoint x="600.3333333333335" y="539.3333333333334" as="targetPoint" />
            <Array as="points">
              <mxPoint x="650" y="501" />
              <mxPoint x="650" y="539" />
            </Array>
          </mxGeometry>
        </mxCell>
        <mxCell id="JlVxawvqB5DC8rzGfeJr-36" style="rounded=0;orthogonalLoop=1;jettySize=auto;html=1;entryX=0.1;entryY=0.004;entryDx=0;entryDy=0;entryPerimeter=0;" edge="1" parent="JlVxawvqB5DC8rzGfeJr-1" source="JlVxawvqB5DC8rzGfeJr-6" target="JlVxawvqB5DC8rzGfeJr-28">
          <mxGeometry relative="1" as="geometry">
            <mxPoint x="580" y="273" as="targetPoint" />
          </mxGeometry>
        </mxCell>
        <mxCell id="JlVxawvqB5DC8rzGfeJr-37" value="3.将两个token都存储到redis中" style="edgeLabel;html=1;align=center;verticalAlign=middle;resizable=0;points=[];" vertex="1" connectable="0" parent="JlVxawvqB5DC8rzGfeJr-36">
          <mxGeometry x="0.4779" y="4" relative="1" as="geometry">
            <mxPoint x="-62" y="-7" as="offset" />
          </mxGeometry>
        </mxCell>
        <mxCell id="JlVxawvqB5DC8rzGfeJr-38" style="rounded=0;orthogonalLoop=1;jettySize=auto;html=1;entryX=-0.567;entryY=0.009;entryDx=0;entryDy=0;entryPerimeter=0;" edge="1" parent="JlVxawvqB5DC8rzGfeJr-1">
          <mxGeometry relative="1" as="geometry">
            <mxPoint x="80" y="390.00000000000006" as="sourcePoint" />
            <mxPoint x="444.3299999999999" y="390.00000000000006" as="targetPoint" />
          </mxGeometry>
        </mxCell>
        <mxCell id="JlVxawvqB5DC8rzGfeJr-39" value="5.请求数据接口携带access-token" style="edgeLabel;html=1;align=center;verticalAlign=middle;resizable=0;points=[];" vertex="1" connectable="0" parent="JlVxawvqB5DC8rzGfeJr-38">
          <mxGeometry x="-0.2662" y="4" relative="1" as="geometry">
            <mxPoint x="22" y="-9" as="offset" />
          </mxGeometry>
        </mxCell>
        <mxCell id="JlVxawvqB5DC8rzGfeJr-40" style="rounded=0;orthogonalLoop=1;jettySize=auto;html=1;dashed=1;" edge="1" parent="JlVxawvqB5DC8rzGfeJr-1">
          <mxGeometry relative="1" as="geometry">
            <mxPoint x="440" y="480" as="sourcePoint" />
            <mxPoint x="79.99666666666674" y="480" as="targetPoint" />
          </mxGeometry>
        </mxCell>
        <mxCell id="JlVxawvqB5DC8rzGfeJr-41" value="7.响应结果" style="edgeLabel;html=1;align=center;verticalAlign=middle;resizable=0;points=[];" vertex="1" connectable="0" parent="JlVxawvqB5DC8rzGfeJr-40">
          <mxGeometry x="0.2259" y="1" relative="1" as="geometry">
            <mxPoint x="-1" y="-16" as="offset" />
          </mxGeometry>
        </mxCell>
        <mxCell id="JlVxawvqB5DC8rzGfeJr-42" style="rounded=0;orthogonalLoop=1;jettySize=auto;html=1;entryX=1.7;entryY=0.669;entryDx=0;entryDy=0;entryPerimeter=0;dashed=1;" edge="1" parent="JlVxawvqB5DC8rzGfeJr-1">
          <mxGeometry relative="1" as="geometry">
            <mxPoint x="445" y="640.0000000000002" as="sourcePoint" />
            <mxPoint x="82" y="640.0000000000002" as="targetPoint" />
          </mxGeometry>
        </mxCell>
        <mxCell id="JlVxawvqB5DC8rzGfeJr-43" value="10.access-token失效，响应401" style="edgeLabel;html=1;align=center;verticalAlign=middle;resizable=0;points=[];" vertex="1" connectable="0" parent="JlVxawvqB5DC8rzGfeJr-42">
          <mxGeometry x="0.2654" y="-1" relative="1" as="geometry">
            <mxPoint x="14" y="-9" as="offset" />
          </mxGeometry>
        </mxCell>
        <mxCell id="JlVxawvqB5DC8rzGfeJr-44" style="rounded=0;orthogonalLoop=1;jettySize=auto;html=1;" edge="1" parent="JlVxawvqB5DC8rzGfeJr-1">
          <mxGeometry relative="1" as="geometry">
            <mxPoint x="80" y="670" as="sourcePoint" />
            <mxPoint x="280" y="670" as="targetPoint" />
          </mxGeometry>
        </mxCell>
        <mxCell id="JlVxawvqB5DC8rzGfeJr-45" value="11.刷新token,携带refresh-token" style="edgeLabel;html=1;align=center;verticalAlign=middle;resizable=0;points=[];" vertex="1" connectable="0" parent="JlVxawvqB5DC8rzGfeJr-44">
          <mxGeometry x="-0.06" y="3" relative="1" as="geometry">
            <mxPoint x="-1" y="-7" as="offset" />
          </mxGeometry>
        </mxCell>
        <mxCell id="JlVxawvqB5DC8rzGfeJr-46" style="rounded=0;orthogonalLoop=1;jettySize=auto;html=1;dashed=1;" edge="1" parent="JlVxawvqB5DC8rzGfeJr-1">
          <mxGeometry relative="1" as="geometry">
            <mxPoint x="285" y="760" as="sourcePoint" />
            <mxPoint x="80" y="760" as="targetPoint" />
          </mxGeometry>
        </mxCell>
        <mxCell id="JlVxawvqB5DC8rzGfeJr-47" value="13.token无效，重新登录" style="edgeLabel;html=1;align=center;verticalAlign=middle;resizable=0;points=[];" vertex="1" connectable="0" parent="JlVxawvqB5DC8rzGfeJr-46">
          <mxGeometry x="-0.0341" y="-3" relative="1" as="geometry">
            <mxPoint y="-8" as="offset" />
          </mxGeometry>
        </mxCell>
        <mxCell id="JlVxawvqB5DC8rzGfeJr-48" style="rounded=0;orthogonalLoop=1;jettySize=auto;html=1;dashed=1;" edge="1" parent="JlVxawvqB5DC8rzGfeJr-1">
          <mxGeometry relative="1" as="geometry">
            <mxPoint x="285" y="1080" as="sourcePoint" />
            <mxPoint x="80" y="1080" as="targetPoint" />
          </mxGeometry>
        </mxCell>
        <mxCell id="JlVxawvqB5DC8rzGfeJr-49" value="19.返回新的access-token、refresh-token" style="edgeLabel;html=1;align=center;verticalAlign=middle;resizable=0;points=[];" vertex="1" connectable="0" parent="JlVxawvqB5DC8rzGfeJr-48">
          <mxGeometry x="0.0179" y="-1" relative="1" as="geometry">
            <mxPoint y="-9" as="offset" />
          </mxGeometry>
        </mxCell>
        <mxCell id="JlVxawvqB5DC8rzGfeJr-50" value="前端" style="rounded=1;whiteSpace=wrap;html=1;" vertex="1" parent="JlVxawvqB5DC8rzGfeJr-1">
          <mxGeometry x="20" y="1130" width="100" height="50" as="geometry" />
        </mxCell>
        <mxCell id="JlVxawvqB5DC8rzGfeJr-51" value="redis" style="rounded=1;whiteSpace=wrap;html=1;" vertex="1" parent="JlVxawvqB5DC8rzGfeJr-1">
          <mxGeometry x="540" y="1130" width="100" height="50" as="geometry" />
        </mxCell>
        <mxCell id="JlVxawvqB5DC8rzGfeJr-52" value="business-server" style="rounded=1;whiteSpace=wrap;html=1;" vertex="1" parent="JlVxawvqB5DC8rzGfeJr-1">
          <mxGeometry x="400" y="1130" width="100" height="50" as="geometry" />
        </mxCell>
        <mxCell id="JlVxawvqB5DC8rzGfeJr-53" value="auth-server" style="rounded=1;whiteSpace=wrap;html=1;" vertex="1" parent="JlVxawvqB5DC8rzGfeJr-1">
          <mxGeometry x="240" y="1130" width="100" height="50" as="geometry" />
        </mxCell>
        <mxCell id="JlVxawvqB5DC8rzGfeJr-54" value="用户" style="shape=umlActor;verticalLabelPosition=bottom;verticalAlign=top;html=1;outlineConnect=0;" vertex="1" parent="JlVxawvqB5DC8rzGfeJr-1">
          <mxGeometry x="55" width="30" height="60" as="geometry" />
        </mxCell>
      </root>
    </mxGraphModel>
  </diagram>
</mxfile>
